<?xml version="1.0" encoding="UTF-8" standalone="no"?>
<!-- Created with Inkscape (http://www.inkscape.org/) -->

<svg
   xmlns:dc="http://purl.org/dc/elements/1.1/"
   xmlns:cc="http://creativecommons.org/ns#"
   xmlns:rdf="http://www.w3.org/1999/02/22-rdf-syntax-ns#"
   xmlns:svg="http://www.w3.org/2000/svg"
   xmlns="http://www.w3.org/2000/svg"
   xmlns:sodipodi="http://sodipodi.sourceforge.net/DTD/sodipodi-0.dtd"
   xmlns:inkscape="http://www.inkscape.org/namespaces/inkscape"
   width="80"
   height="80"
   viewBox="0 0 21.166666 21.166667"
   version="1.1"
   id="svg8"
   inkscape:version="0.92.2 (unknown)"
   sodipodi:docname="card.svg">
  <defs
     id="defs2" />
  <sodipodi:namedview
     id="base"
     pagecolor="#ffffff"
     bordercolor="#666666"
     borderopacity="1.0"
     inkscape:pageopacity="0.0"
     inkscape:pageshadow="2"
     inkscape:zoom="7.9195959"
     inkscape:cx="40.306644"
     inkscape:cy="43.939987"
     inkscape:document-units="mm"
     inkscape:current-layer="layer1"
     showgrid="false"
     inkscape:pagecheckerboard="true"
     units="px"
     inkscape:window-width="1920"
     inkscape:window-height="1025"
     inkscape:window-x="0"
     inkscape:window-y="27"
     inkscape:window-maximized="1" />
  <metadata
     id="metadata5">
    <rdf:RDF>
      <cc:Work
         rdf:about="">
        <dc:format>image/svg+xml</dc:format>
        <dc:type
           rdf:resource="http://purl.org/dc/dcmitype/StillImage" />
        <dc:title></dc:title>
      </cc:Work>
    </rdf:RDF>
  </metadata>
  <g
     inkscape:label="Layer 1"
     inkscape:groupmode="layer"
     id="layer1"
     transform="translate(0,-275.83332)">
    <path
       style="fill:#ffffff;fill-opacity:1;stroke-width:0.99999994"
       d="M 21.84375 0.32421875 C 18.555956 0.32421875 15.910156 2.9719717 15.910156 6.2597656 L 15.910156 73.8125 C 15.910156 77.100294 18.555956 79.748047 21.84375 79.748047 L 56.316406 79.748047 C 59.6042 79.748047 62.25 77.100294 62.25 73.8125 L 62.25 6.2597656 C 62.25 2.9719717 59.6042 0.32421875 56.316406 0.32421875 L 21.84375 0.32421875 z M 28.837891 22.132812 L 40.919922 22.132812 C 44.444227 22.132812 47.214627 23.192491 49.228516 25.310547 C 51.242404 27.411241 52.248047 30.213759 52.248047 33.720703 C 52.248047 37.366536 51.284505 40.179037 49.357422 42.158203 C 47.4477 44.120009 44.749349 45.135634 41.259766 45.205078 L 33.603516 45.205078 L 33.603516 60.048828 L 28.837891 60.048828 L 28.837891 22.132812 z M 33.603516 26.248047 L 33.603516 41.117188 L 40.919922 41.117188 C 43.037977 41.117188 44.662543 40.484158 45.791016 39.216797 C 46.919488 37.949436 47.482422 36.134549 47.482422 33.773438 C 47.482422 31.499132 46.901476 29.676215 45.738281 28.304688 C 44.575087 26.93316 42.978516 26.248047 40.947266 26.248047 L 33.603516 26.248047 z "
       transform="matrix(0.26458333,0,0,0.26458333,0,275.83332)"
       id="rect16" />
  </g>
</svg>
