<?xml version="1.0" encoding="UTF-8" standalone="no"?>
<svg
   xmlns:dc="http://purl.org/dc/elements/1.1/"
   xmlns:cc="http://creativecommons.org/ns#"
   xmlns:rdf="http://www.w3.org/1999/02/22-rdf-syntax-ns#"
   xmlns:svg="http://www.w3.org/2000/svg"
   xmlns="http://www.w3.org/2000/svg"
   xmlns:sodipodi="http://sodipodi.sourceforge.net/DTD/sodipodi-0.dtd"
   xmlns:inkscape="http://www.inkscape.org/namespaces/inkscape"
   id="Layer_1"
   data-name="Layer 1"
   viewBox="0 0 80.000002 79.999999"
   version="1.1"
   sodipodi:docname="card.svg"
   width="80"
   height="80"
   inkscape:version="0.92.2 (unknown)">
  <metadata
     id="metadata3803">
    <rdf:RDF>
      <cc:Work
         rdf:about="">
        <dc:format>image/svg+xml</dc:format>
        <dc:type
           rdf:resource="http://purl.org/dc/dcmitype/StillImage" />
        <dc:title>Carta-C</dc:title>
      </cc:Work>
    </rdf:RDF>
  </metadata>
  <sodipodi:namedview
     pagecolor="#ffffff"
     bordercolor="#666666"
     borderopacity="1"
     objecttolerance="10"
     gridtolerance="10"
     guidetolerance="10"
     inkscape:pageopacity="0"
     inkscape:pageshadow="2"
     inkscape:window-width="1920"
     inkscape:window-height="1025"
     id="namedview3801"
     showgrid="false"
     inkscape:snap-page="false"
     inkscape:zoom="3.5428437"
     inkscape:cx="147.21861"
     inkscape:cy="6.2763397"
     inkscape:window-x="0"
     inkscape:window-y="27"
     inkscape:window-maximized="1"
     inkscape:current-layer="Layer_1"
     inkscape:pagecheckerboard="true" />
  <defs
     id="defs3782">
    <style
       id="style3780">.cls-1{opacity:0.38;}.cls-2{fill:#fff;}.cls-3{fill:#000e0f;opacity:0.87;}.cls-4{opacity:0.36;}.cls-5{opacity:0.32;}</style>
  </defs>
  <title
     id="title3784">Carta-C</title>
  <path
     d="M 17.974,0 C 16.32641,0 15,1.32641 15,2.974 V 77.026 C 15,78.67359 16.32641,80 17.974,80 h 44.85115 c 1.64759,0 2.974,-1.32641 2.974,-2.974 V 2.974 C 65.79915,1.32641 64.47274,0 62.82515,0 Z m 1.62764,1.89492 h 41.59722 c 1.64759,0 2.974,1.32641 2.974,2.974 v 70.26216 c 0,1.64759 -1.32641,2.974 -2.974,2.974 H 19.60164 c -1.64759,0 -2.974,-1.32641 -2.974,-2.974 V 4.86892 c 0,-1.64759 1.32641,-2.974 2.974,-2.974 z"
     id="rect3788"
     style="fill:#ffffff;stroke-width:0.13781223"
     inkscape:connector-curvature="0" />
  <g
     class="cls-5"
     id="g3796"
     transform="matrix(0.13781223,0,0,0.13781223,11.169617,-5.6592585)"
     style="opacity:0.32000002">
    <path
       d="m 168.63,419 a 88.84,88.84 0 0 1 -33.28,-35.34 q -11.82,-22.41 -11.82,-49.64 a 116.42,116.42 0 0 1 11.13,-49.91 94.61,94.61 0 0 1 32.87,-38.63 q 21.72,-14.86 52.25,-14.85 a 88.75,88.75 0 0 1 23.78,3.57 97.68,97.68 0 0 1 23.52,9.9 h 0.27 l -1.1,-11.55 h 21.18 v 64.08 h -17.88 q -7.43,-45.66 -46.2,-46.21 -18.42,0 -31.21,10.87 -12.79,10.87 -19.14,28.77 a 114.53,114.53 0 0 0 -6.33,38.5 q 0,23.65 6.88,42.08 6.88,18.43 19.8,28.74 12.92,10.31 31.07,10.31 a 72.09,72.09 0 0 0 34.58,-9.08 84.73,84.73 0 0 0 28.47,-24.75 l 13.2,12.1 q -18.15,25 -39.88,34.52 -21.73,9.52 -42.94,9.52 -27.78,0 -49.22,-13 z"
       id="path3794"
       inkscape:connector-curvature="0" />
  </g>
  <path
     class="cls-2"
     d="m 34.408896,52.084065 a 12.243239,12.243239 0 0 1 -4.58639,-4.87029 q -1.62894,-3.08837 -1.62894,-6.841 a 16.0441,16.0441 0 0 1 1.53385,-6.8782 13.038415,13.038415 0 0 1 4.52989,-5.32369 q 2.99328,-2.04789 7.20069,-2.04651 a 12.230835,12.230835 0 0 1 3.27717,0.49199 13.461499,13.461499 0 0 1 3.24135,1.36434 h 0.0372 l -0.1516,-1.59173 h 2.91887 v 8.831 h -2.46409 q -1.02394,-6.2925 -6.36692,-6.3683 -2.5385,0 -4.30112,1.49802 -1.76262,1.49802 -2.63773,3.96486 a 15.783635,15.783635 0 0 0 -0.87235,5.30577 q 0,3.25926 0.94815,5.79914 0.94815,2.53988 2.72868,3.96072 1.78053,1.42085 4.28183,1.42085 a 9.9348837,9.9348837 0 0 0 4.76554,-1.25134 11.67683,11.67683 0 0 0 3.92352,-3.41085 l 1.81912,1.66753 q -2.50129,3.4453 -5.49595,4.75727 -2.99466,1.31198 -5.91766,1.31198 -3.82842,0 -6.78312,-1.79156 z"
     id="path3798"
     inkscape:connector-curvature="0"
     style="fill:#ffffff;stroke-width:0.13781223" />
</svg>
