<svg id="Layer_1" data-name="Layer 1" xmlns="http://www.w3.org/2000/svg" viewBox="0 0 420.27 662.63"><defs><style>.cls-1{opacity:0.38;}.cls-2{fill:#fff;}.cls-3{fill:#000e0f;opacity:0.87;}.cls-4{opacity:0.36;}.cls-5{opacity:0.32;}</style></defs><title>Carta-C</title><rect class="cls-1" x="27.19" y="37.25" width="368.61" height="580.5" rx="21.58" ry="21.58"/><rect class="cls-2" x="24.19" y="32.25" width="368.61" height="580.5" rx="21.58" ry="21.58"/><rect class="cls-3" x="36" y="46" width="345" height="553" rx="21.58" ry="21.58"/><circle class="cls-4" cx="210.13" cy="331.32" r="145.5"/><g class="cls-5"><path d="M168.63,419a88.84,88.84,0,0,1-33.28-35.34q-11.82-22.41-11.82-49.64a116.42,116.42,0,0,1,11.13-49.91,94.61,94.61,0,0,1,32.87-38.63q21.72-14.86,52.25-14.85a88.75,88.75,0,0,1,23.78,3.57,97.68,97.68,0,0,1,23.52,9.9h.27l-1.1-11.55h21.18v64.08H269.55q-7.43-45.66-46.2-46.21-18.42,0-31.21,10.87T173,290.06a114.53,114.53,0,0,0-6.33,38.5q0,23.65,6.88,42.08t19.8,28.74q12.92,10.31,31.07,10.31A72.09,72.09,0,0,0,259,400.61a84.73,84.73,0,0,0,28.47-24.75l13.2,12.1q-18.15,25-39.88,34.52T217.85,432Q190.07,432,168.63,419Z"/></g><path class="cls-2" d="M162.63,413a88.84,88.84,0,0,1-33.28-35.34q-11.82-22.41-11.82-49.64a116.42,116.42,0,0,1,11.13-49.91,94.61,94.61,0,0,1,32.87-38.63q21.72-14.86,52.25-14.85a88.75,88.75,0,0,1,23.78,3.57,97.68,97.68,0,0,1,23.52,9.9h.27l-1.1-11.55h21.18v64.08H263.55q-7.43-45.66-46.2-46.21-18.42,0-31.21,10.87T167,284.06a114.53,114.53,0,0,0-6.33,38.5q0,23.65,6.88,42.08t19.8,28.74q12.92,10.31,31.07,10.31A72.09,72.09,0,0,0,253,394.61a84.73,84.73,0,0,0,28.47-24.75l13.2,12.1q-18.15,25-39.88,34.52T211.85,426Q184.07,426,162.63,413Z"/></svg>