<svg width="420.27" height="662.63" xmlns="http://www.w3.org/2000/svg" xmlns:svg="http://www.w3.org/2000/svg">
 <defs>
  <style>.cls-1{opacity:0.38;}.cls-2{fill:#fff;}.cls-3{fill:#000e0f;opacity:0.87;}.cls-4{opacity:0.36;}.cls-5{opacity:0.32;}</style>
 </defs>
 <title>Carta-C</title>
 <g>
  <title>Layer 1</title>
  <rect class="cls-2" x="24.19" y="32.25" width="368.61" height="580.5" rx="21.58" ry="21.58" id="svg_2" fill="black"/>
  <path class="cls-2" d="m162.63,413a88.84,88.84 0 0 1 -33.28,-35.34q-11.82,-22.41 -11.82,-49.64a116.42,116.42 0 0 1 11.13,-49.91a94.61,94.61 0 0 1 32.87,-38.63q21.72,-14.86 52.25,-14.85a88.75,88.75 0 0 1 23.78,3.57a97.68,97.68 0 0 1 23.52,9.9l0.27,0l-1.1,-11.55l21.18,0l0,64.08l-17.88,0q-7.43,-45.66 -46.2,-46.21q-18.42,0 -31.21,10.87t-19.14,28.77a114.53,114.53 0 0 0 -6.33,38.5q0,23.65 6.88,42.08t19.8,28.74q12.92,10.31 31.07,10.31a72.09,72.09 0 0 0 34.58,-9.08a84.73,84.73 0 0 0 28.47,-24.75l13.2,12.1q-18.15,25 -39.88,34.52t-42.94,9.52q-27.78,0 -49.22,-13z" id="svg_7" fill="black"/>
 </g>
</svg>
