<?xml version="1.0" encoding="UTF-8" standalone="no"?>
<svg
   xmlns:dc="http://purl.org/dc/elements/1.1/"
   xmlns:cc="http://creativecommons.org/ns#"
   xmlns:rdf="http://www.w3.org/1999/02/22-rdf-syntax-ns#"
   xmlns:svg="http://www.w3.org/2000/svg"
   xmlns="http://www.w3.org/2000/svg"
   xmlns:sodipodi="http://sodipodi.sourceforge.net/DTD/sodipodi-0.dtd"
   xmlns:inkscape="http://www.inkscape.org/namespaces/inkscape"
   id="Layer_1"
   data-name="Layer 1"
   viewBox="0 0 420.27 662.63"
   version="1.1"
   sodipodi:docname="Carta-C.svg"
   inkscape:version="0.92.2 (unknown)">
  <metadata
     id="metadata3803">
    <rdf:RDF>
      <cc:Work
         rdf:about="">
        <dc:format>image/svg+xml</dc:format>
        <dc:type
           rdf:resource="http://purl.org/dc/dcmitype/StillImage" />
        <dc:title>Carta-C</dc:title>
      </cc:Work>
    </rdf:RDF>
  </metadata>
  <sodipodi:namedview
     pagecolor="#ffffff"
     bordercolor="#666666"
     borderopacity="1"
     objecttolerance="10"
     gridtolerance="10"
     guidetolerance="10"
     inkscape:pageopacity="0"
     inkscape:pageshadow="2"
     inkscape:window-width="1920"
     inkscape:window-height="1025"
     id="namedview3801"
     showgrid="false"
     inkscape:snap-page="false"
     inkscape:zoom="1.2525844"
     inkscape:cx="210.13499"
     inkscape:cy="358.10532"
     inkscape:window-x="0"
     inkscape:window-y="27"
     inkscape:window-maximized="1"
     inkscape:current-layer="Layer_1">
    <inkscape:grid
       type="xygrid"
       id="grid3805" />
  </sodipodi:namedview>
  <defs
     id="defs3782">
    <style
       id="style3780">.cls-1{opacity:0.38;}.cls-2{fill:#fff;}.cls-3{fill:#000e0f;opacity:0.87;}.cls-4{opacity:0.36;}.cls-5{opacity:0.32;}</style>
  </defs>
  <title
     id="title3784">Carta-C</title>
  <rect
     class="cls-2"
     x="24.19"
     y="32.25"
     width="368.61"
     height="580.5"
     rx="21.58"
     ry="21.58"
     id="rect3788" />
  <path
     class="cls-2"
     d="M162.63,413a88.84,88.84,0,0,1-33.28-35.34q-11.82-22.41-11.82-49.64a116.42,116.42,0,0,1,11.13-49.91,94.61,94.61,0,0,1,32.87-38.63q21.72-14.86,52.25-14.85a88.75,88.75,0,0,1,23.78,3.57,97.68,97.68,0,0,1,23.52,9.9h.27l-1.1-11.55h21.18v64.08H263.55q-7.43-45.66-46.2-46.21-18.42,0-31.21,10.87T167,284.06a114.53,114.53,0,0,0-6.33,38.5q0,23.65,6.88,42.08t19.8,28.74q12.92,10.31,31.07,10.31A72.09,72.09,0,0,0,253,394.61a84.73,84.73,0,0,0,28.47-24.75l13.2,12.1q-18.15,25-39.88,34.52T211.85,426Q184.07,426,162.63,413Z"
     id="path3798" />
</svg>
