<?xml version="1.0" encoding="utf-8"?>
<!-- Generator: Adobe Illustrator 19.0.0, SVG Export Plug-In . SVG Version: 6.00 Build 0)  -->
<svg version="1.1" id="Layer_1" xmlns="http://www.w3.org/2000/svg" xmlns:xlink="http://www.w3.org/1999/xlink" x="0px" y="0px"
	 viewBox="0 40 358 512" style="enable-background:new 0 40 358 512;" xml:space="preserve">
<style type="text/css">
	.st0{fill:#999999;}
</style>
<path class="st0" d="M319.6,40H38.4C17.2,40,0,57.2,0,78.4v435.2C0,534.8,17.2,552,38.4,552h281.3c21.2,0,38.4-17.2,38.4-38.4V78.4
	C358,57.2,340.8,40,319.6,40z M164,386.1c-10,10-23.2,15.4-37.3,15.4h0c-29.1,0-52.7-23.7-52.7-52.8c0-29.1,23.6-52.8,52.7-52.8
	s52.7,23.7,52.7,52.8C179.4,362.8,173.9,376.1,164,386.1z M269,281.1c-10,10-23.2,15.4-37.3,15.4h0c-29.1,0-52.7-23.7-52.7-52.8
	c0-29.1,23.6-52.8,52.7-52.8s52.7,23.7,52.7,52.8C284.4,257.8,278.9,271.1,269,281.1z"/>
</svg>
