<?xml version="1.0" encoding="utf-8"?>
<!-- Generator: Adobe Illustrator 19.0.0, SVG Export Plug-In . SVG Version: 6.00 Build 0)  -->
<svg version="1.1" id="Layer_1" xmlns="http://www.w3.org/2000/svg" xmlns:xlink="http://www.w3.org/1999/xlink" x="0px" y="0px"
	 viewBox="0 0 512 512" style="enable-background:new 0 0 512 512;" xml:space="preserve">
<style type="text/css">
	.st0{fill:#999999;}
</style>
<path class="st0" d="M396.6,0H115.4C94.2,0,77,17.2,77,38.4v435.2c0,21.2,17.2,38.4,38.4,38.4h281.3c21.2,0,38.4-17.2,38.4-38.4
	V38.4C435,17.2,417.8,0,396.6,0z M241,346.1c-10,10-23.2,15.4-37.3,15.4h0c-29.1,0-52.7-23.7-52.7-52.8c0-29.1,23.6-52.8,52.7-52.8
	s52.7,23.7,52.7,52.8C256.4,322.8,250.9,336.1,241,346.1z M346,241.1c-10,10-23.2,15.4-37.3,15.4h0c-29.1,0-52.7-23.7-52.7-52.8
	c0-29.1,23.6-52.8,52.7-52.8s52.7,23.7,52.7,52.8C361.4,217.8,355.9,231.1,346,241.1z"/>
</svg>
