<svg id="Layer_1" data-name="Layer 1" xmlns="http://www.w3.org/2000/svg" viewBox="0 0 420.27 662.63"><defs><style>.cls-1{opacity:0.38;}.cls-2{fill:#fff;}.cls-3{fill:#000e0f;}.cls-3,.cls-6{opacity:0.87;}.cls-4{opacity:0.36;}.cls-5{opacity:0.32;}.cls-6{fill:#24001e;}</style></defs><title>Cartas</title><rect class="cls-1" x="27.34" y="20.15" width="368.61" height="580.5" rx="21.58" ry="21.58" transform="translate(-18.68 13.59) rotate(-3.52)"/><rect class="cls-2" x="24.04" y="15.35" width="368.61" height="580.5" rx="21.58" ry="21.58" transform="translate(-18.39 13.38) rotate(-3.52)"/><rect class="cls-3" x="35.85" y="29.1" width="345" height="553" rx="21.58" ry="21.58" transform="translate(-18.39 13.38) rotate(-3.52)"/><circle class="cls-4" cx="210.52" cy="314.3" r="145.5"/><g class="cls-5"><path d="M174.48,404.41a88.9,88.9,0,0,1-35.38-33.23q-13.18-21.65-14.85-48.82a116.3,116.3,0,0,1,8.05-50.5,94.5,94.5,0,0,1,30.42-40.58q20.78-16.17,51.24-18a88.89,88.89,0,0,1,24,2.11A97.77,97.77,0,0,1,262,223.79l.27,0-1.8-11.46L281.6,211,285.54,275l-17.84,1.1q-10.21-45.1-48.95-43.27-18.41,1.13-30.49,12.76T171,275.4A114.69,114.69,0,0,0,167,314.22q1.45,23.61,9.45,41.57T198,383.26q13.53,9.5,31.65,8.38a72.22,72.22,0,0,0,33.89-11.18A84.87,84.87,0,0,0,290.41,354l13.91,11.27q-16.57,26.09-37.67,36.89t-42.24,12.11Q196.69,416,174.48,404.41Z"/></g><path class="cls-2" d="M168.13,398.79a88.85,88.85,0,0,1-35.39-33.23q-13.17-21.65-14.85-48.82a116.3,116.3,0,0,1,8-50.5,94.66,94.66,0,0,1,30.42-40.58q20.77-16.17,51.24-18a88.89,88.89,0,0,1,24,2.11,97.63,97.63,0,0,1,24.08,8.44l.28,0-1.81-11.46,21.13-1.3,3.94,63.95-17.84,1.1q-10.21-45.1-48.95-43.27Q194,228.3,181.9,239.93t-17.31,29.85a114.44,114.44,0,0,0-3.94,38.82q1.44,23.61,9.44,41.57t21.53,27.47q13.53,9.5,31.65,8.38a72.22,72.22,0,0,0,33.89-11.18,84.76,84.76,0,0,0,26.89-26.45L298,359.66q-16.58,26.08-37.68,36.89t-42.24,12.11Q190.33,410.37,168.13,398.79Z"/><rect class="cls-1" x="27.05" y="67.33" width="368.61" height="580.5" rx="21.58" ry="21.58" transform="translate(20.73 -11.47) rotate(3.27)"/><rect class="cls-2" x="24.34" y="62.17" width="368.61" height="580.5" rx="21.58" ry="21.58" transform="translate(20.43 -11.32) rotate(3.27)"/><rect class="cls-6" x="36.14" y="75.92" width="345" height="553" rx="21.58" ry="21.58" transform="translate(20.43 -11.32) rotate(3.27)"/><circle class="cls-4" cx="209.77" cy="361.31" r="145.5"/><g class="cls-5"><path d="M131.76,435.08c5,.11,8.73-.28,11.36-1.14s4.75-2.89,6.4-6.1,2.69-8.39,3.09-15.53l6-105.15a221.83,221.83,0,0,1,2.51-24.65l-20.64-.35L141.7,261,279,268.86l-1.39,53.36-18.12-1q1.16-20.31-8.14-28.7t-23.06-8.61l-9.9-.29a33.39,33.39,0,0,0-10.53,1.18q-3.95,1.31-6.29,6.39t-2.94,15.26l-2.35,41.18,32.12,1.84q0-4.68.27-23.95l21.14,1.21L246,393.4l-18.12-1q.63-11-2.51-16.4a15.43,15.43,0,0,0-8.54-7.23c-3.6-1.22-8.43-1.9-14.48-2.07l-7.15-.13-2.57,45a217.93,217.93,0,0,1-2.48,24.1l36.79,2.1a32.85,32.85,0,0,0,24.29-8.11q10.28-8.92,11.46-29.51l17.85,1-4.82,60.32-145-8.28Z"/></g><path class="cls-2" d="M126.11,428.75q7.42.15,11.36-1.14t6.41-6.11q2.48-4.81,3.09-15.52l6-105.15a221.83,221.83,0,0,1,2.51-24.65l-20.64-.35,1.21-21.14,137.28,7.84-1.4,53.35-18.12-1q1.17-20.33-8.14-28.7t-23.06-8.62l-9.9-.29a33.35,33.35,0,0,0-10.53,1.19q-3.93,1.29-6.29,6.39T193,300.08l-2.36,41.18,32.13,1.84q0-4.68.26-24l21.14,1.2-3.81,66.72-18.12-1q.63-11-2.51-16.4a15.4,15.4,0,0,0-8.53-7.23,50.74,50.74,0,0,0-14.49-2.07l-7.15-.13-2.57,45a215.52,215.52,0,0,1-2.48,24.1l36.79,2.1a32.87,32.87,0,0,0,24.29-8.11q10.29-8.93,11.46-29.51l17.85,1L270,455.15l-145-8.28Z"/></svg>