<?xml version="1.0" encoding="utf-8"?>
<!-- Generator: Adobe Illustrator 19.0.0, SVG Export Plug-In . SVG Version: 6.00 Build 0)  -->
<svg version="1.1" id="Layer_1" xmlns="http://www.w3.org/2000/svg" xmlns:xlink="http://www.w3.org/1999/xlink" x="0px" y="0px"
	 viewBox="0 0 40 40" style="enable-background:new 0 0 40 40;" xml:space="preserve">
<style type="text/css">
	.st0{fill:#FFFFFF;}
</style>
<path class="st0" d="M140.6-256h-281.3c-21.2,0-38.4,17.2-38.4,38.4v435.2c0,21.2,17.2,38.4,38.4,38.4h281.3
	c21.2,0,38.4-17.2,38.4-38.4v-435.2C179-238.8,161.8-256,140.6-256z M-15,90.1c-10,10-23.2,15.4-37.3,15.4h0
	c-29.1,0-52.7-23.7-52.7-52.8C-105,23.7-81.4,0-52.3,0S0.4,23.7,0.4,52.8C0.4,66.8-5.1,80.1-15,90.1z M90-14.9
	C80-5,66.8,0.5,52.7,0.5h0C23.6,0.5,0-23.2,0-52.2C0-81.3,23.6-105,52.7-105s52.7,23.7,52.7,52.8C105.4-38.2,99.9-24.9,90-14.9z"/>
</svg>
